<svg xmlns="http://www.w3.org/2000/svg" viewBox="0 0 18.54 69.06"><polygon points="18.76 50.12 18.76 65.48 9.4 65.48 5.99 56.13 5.99 56.12 3.8 50.12 18.76 50.12"/><polygon points="5.2 3.57 18.76 3.57 18.76 18.92 10.8 18.92 9.5 15.35 5.2 3.57" fill="#b77a39"/><path d="M9.41,65.48,3.8,50.13,5.2,3.57l5.6,15.36Z" fill="#865b2b"/><path d="M10.86,18.92h0l-1,31.19L9.4,65.48h9.36V18.93" fill="#fff"/><path d="M5.6,69.06,0,53.7,1.61,0l5.6,15.36Z"/><polygon points="1.61 0 18.76 0 18.76 15.35 7.21 15.35 1.61 0"/><path d="M18.76,18.92V15.35H7.21l-1,34.77-.18,6H6L5.6,69.05H18.76V65.48H9.4l.46-15.36.94-31.19"/></svg>