<svg xmlns="http://www.w3.org/2000/svg" viewBox="0 0 660.5 69.05"><polygon points="655.3 65.49 -0.2 65.49 -0.2 50.13 649.71 50.13 655.29 65.46 655.3 65.49"/><path d="M655.3,65.49l-5.6-15.36,1.4-46.56,5.6,15.36Z"/><polygon points="656.7 18.93 -0.2 18.93 -0.2 3.57 651.1 3.57 651.11 3.6 655.39 15.36 656.7 18.93" fill="#b77a39"/><polygon points="655.7 18.93 654.29 65.46 654.29 65.49 -0.2 65.49 -0.2 18.93 655.7 18.93" fill="#fff"/><polygon points="660.5 15.36 -0.2 15.36 -0.2 0 654.9 0 660.5 15.36"/><path d="M-.2,15.36v3.57H656.7l-1.4,46.56H-.2v3.57H658.89l1.6-53.7Z"/></svg>