<svg xmlns="http://www.w3.org/2000/svg" xmlns:xlink="http://www.w3.org/1999/xlink" viewBox="0 0 101.85 60.45"><defs><clipPath id="a"><polygon points="0 60.44 1.81 0 101.85 0 100.04 60.45 0 60.44" fill="none"/></clipPath></defs><g clip-path="url(#a)"><path d="M12.67,48.72,13.14,33H28.36a16.17,16.17,0,0,1,6.16,1,6.1,6.1,0,0,1,3.75,6.32A7.62,7.62,0,0,1,34,47.68a15.23,15.23,0,0,1-6.3,1h-15m.76-25.48.39-13H27.29a24.23,24.23,0,0,1,7.28.93,5.08,5.08,0,0,1,3.16,5.44,5.7,5.7,0,0,1-2.67,5.17,13.1,13.1,0,0,1-6.59,1.46h-15M31.69,0H1.81L.05,59H27.91a44.42,44.42,0,0,0,8.76-.8,17.94,17.94,0,0,0,7.07-2.95,17.46,17.46,0,0,0,4.52-4.63,17,17,0,0,0,3-9.41,14.76,14.76,0,0,0-2.15-8.64,13.29,13.29,0,0,0-7-5.2A15.53,15.53,0,0,0,47,24a13.07,13.07,0,0,0,3.11-8.68,14.23,14.23,0,0,0-2.55-9Q43,.16,31.69,0" fill="#fff"/><path d="M92.15,2.76H65.66l-.22,7.33H91.93l.22-7.33" fill="#fff"/><path d="M67.85,32.83a12,12,0,0,1,3.39-6.73,10,10,0,0,1,7.2-2.5,10.59,10.59,0,0,1,7,2.34,9.09,9.09,0,0,1,3,6.9H67.84M78.72,14.21a23.26,23.26,0,0,0-16.53,6q-6.48,6-6.83,17.39Q55,49.72,61.83,55.09a25,25,0,0,0,16,5.35,23.47,23.47,0,0,0,17.39-6.35,14.75,14.75,0,0,0,4.66-7.88H87.63a10,10,0,0,1-2.56,3,10.63,10.63,0,0,1-6.69,2,12.18,12.18,0,0,1-6.54-1.64,9.94,9.94,0,0,1-4.52-9.19h33.33a54.41,54.41,0,0,0-.14-8.66,20,20,0,0,0-3.39-9,17.4,17.4,0,0,0-7.7-6.45A26.67,26.67,0,0,0,78.73,14.2" fill="#fff"/></g></svg>