<svg xmlns="http://www.w3.org/2000/svg" xmlns:xlink="http://www.w3.org/1999/xlink" viewBox="0 0 101.85 87.6"><defs><clipPath id="a"><polygon points="0 87.6 2.63 0 101.85 0 99.22 87.6 0 87.6" fill="none"/></clipPath></defs><g clip-path="url(#a)"><path d="M18,26.87H5.05A3.29,3.29,0,0,0,1.73,30L.09,84.48a3.07,3.07,0,0,0,3,3.12h13a3.27,3.27,0,0,0,3.31-3.12L21.07,30a3.07,3.07,0,0,0-3-3.12H18" fill="#fff"/><path d="M18.75,0H5.86A3.29,3.29,0,0,0,2.53,3.12L2.2,14.19a3.07,3.07,0,0,0,3,3.12h13a3.29,3.29,0,0,0,3.31-3.12l.33-11.07a3,3,0,0,0-3-3.12h-.13" fill="#fff"/><path d="M76.52,25.28a30,30,0,0,0-22.31,9.59,2.12,2.12,0,0,1-1.31.79c-.49,0-.77-.52-.74-1.52L52.28,30a3.06,3.06,0,0,0-3-3.12H37.64A3.31,3.31,0,0,0,34.32,30L32.68,84.48a3.07,3.07,0,0,0,3,3.12h13A3.31,3.31,0,0,0,52,84.48l.56-19a60.1,60.1,0,0,1,2-16.24,14,14,0,0,1,5.69-7,16.17,16.17,0,0,1,9.1-2.67A11.47,11.47,0,0,1,76,41.43a10.13,10.13,0,0,1,3.87,5.23Q81,50,80.67,61.46l-.69,23a3.05,3.05,0,0,0,3,3.12H96a3.28,3.28,0,0,0,3.31-3.12l.92-30.86A55.7,55.7,0,0,0,99.56,41,19.52,19.52,0,0,0,96,33.19a18.63,18.63,0,0,0-7.84-5.7,29.41,29.41,0,0,0-11.64-2.22" fill="#fff"/></g></svg>