<svg xmlns="http://www.w3.org/2000/svg" xmlns:xlink="http://www.w3.org/1999/xlink" viewBox="0 0 983.09 981.21"><defs><clipPath id="a"><path d="M443.93,36.21l13.9,7.35-.17-.08-13.9-7.34Z" fill="#fff"/></clipPath><clipPath id="b"><path d="M422.64,82.17l-13.9-7.34a1.27,1.27,0,0,1-.45-.38l13.9,7.34A1.27,1.27,0,0,0,422.64,82.17Z" fill="#fff"/></clipPath><clipPath id="c"><path d="M381.05,33.77,395,41.11a1.35,1.35,0,0,0-.69-.16,1.44,1.44,0,0,0-1.15.61l-13.9-7.34a1.41,1.41,0,0,1,1.84-.45Z" fill="#fff"/></clipPath><clipPath id="d"><path d="M352.25,77.09l4.23,2.24,3.63,1.92,3.57,1.88,1.67.88c.24.13.53.42.8.42A1.46,1.46,0,0,1,365,85q-7-3.66-13.9-7.34A1.49,1.49,0,0,0,352.25,77.09Z" fill="#fff"/></clipPath><clipPath id="e"><path d="M351.08,77.7h.05Q358.08,81.38,365,85h0Z" fill="#fff"/></clipPath><clipPath id="f"><path d="M364.32,84.89l-13.9-7.35a1.27,1.27,0,0,0,.66.16L365,85.05A1.49,1.49,0,0,1,364.32,84.89Z" fill="#fff"/></clipPath><clipPath id="g"><path d="M364.3,84.88l-13.9-7.35a1.13,1.13,0,0,1-.38-.3l13.9,7.34A1.26,1.26,0,0,0,364.3,84.88Z" fill="#fff"/></clipPath><clipPath id="h"><path d="M317.08,34.88,331,42.22a1.41,1.41,0,0,0-.67-.16,1.71,1.71,0,0,0-.5.1,1.48,1.48,0,0,0-.93,1.37L315,36.19a1.48,1.48,0,0,1,.93-1.37,1.44,1.44,0,0,1,.5-.1A1.41,1.41,0,0,1,317.08,34.88Z" fill="#fff"/></clipPath><clipPath id="i"><path d="M456.09,43.91l-13.9-7.35a1.46,1.46,0,0,1,1.07-.51,1.43,1.43,0,0,1,.5.09l13.9,7.34a1.22,1.22,0,0,0-.5-.08A1.39,1.39,0,0,0,456.09,43.91Z" fill="#fff"/></clipPath><clipPath id="j"><path d="M409.4,75a1.49,1.49,0,0,0,1.1-.51l13.9,7.34h0l-13.86-7.32,13.86,7.32a1.5,1.5,0,0,1-1.1.5Z" fill="#fff"/></clipPath><clipPath id="k"><path d="M409.37,75h0l13.9,7.34h0Z" fill="#fff"/></clipPath><clipPath id="l"><path d="M422.65,82.18l-13.9-7.34a1.33,1.33,0,0,0,.62.16l13.9,7.34A1.33,1.33,0,0,1,422.65,82.18Z" fill="#fff"/></clipPath><clipPath id="m"><path d="M457.83,46.32a2.67,2.67,0,0,1-1.2-.28,1.23,1.23,0,0,1-.26-.12l-13.9-7.34a2.76,2.76,0,0,1,2.24-5,4.83,4.83,0,0,1,.52.23l13.89,7.34h0a2.76,2.76,0,0,1-1.3,5.2ZM456.54,46Zm-13.9-7.34Z" fill="#1d1d1b" clip-path="url(#a)"/></clipPath><clipPath id="n"><path d="M456.09,46.67a2.68,2.68,0,0,1-1.29-.32L440.9,39a2.79,2.79,0,0,1-1.43-1.93,2.75,2.75,0,0,1,.62-2.32,4.25,4.25,0,0,1,3.12-1.47,4.46,4.46,0,0,1,1.5.25,2.07,2.07,0,0,1,.34.15L459,41a3.69,3.69,0,0,1-2.86,5.63Z" fill="#1d1d1b" clip-path="url(#i)"/></clipPath><clipPath id="o"><path d="M423.3,85.11a2.77,2.77,0,0,1-1.29-.32l-13.9-7.35a3.34,3.34,0,0,1,3.68-5.39l13.9,7.34a2.76,2.76,0,0,1,.83,4.21h0l0,.06a4.24,4.24,0,0,1-3.08,1.45ZM408.41,72.67h0Z" fill="#1d1d1b" clip-path="url(#j)"/></clipPath><clipPath id="p"><path d="M423.28,85.11a2.81,2.81,0,0,1-1.3-.32l-13.9-7.35a2.76,2.76,0,0,1,1.19-5.2h.12a2.81,2.81,0,0,1,1.3.32l13.9,7.34a2.77,2.77,0,0,1-1.24,5.21Z" fill="#1d1d1b" clip-path="url(#k)"/></clipPath><clipPath id="q"><path d="M423.27,85.11h-.06a4.34,4.34,0,0,1-1.85-.48l-13.9-7.35h0a2.76,2.76,0,0,1,2.29-5,2.87,2.87,0,0,1,.91.3l13.9,7.34a2.76,2.76,0,0,1-1.29,5.21Zm.67-5.37Z" fill="#1d1d1b" clip-path="url(#l)"/></clipPath><clipPath id="r"><path d="M422.64,84.94a2.71,2.71,0,0,1-1.29-.32l-13.9-7.34a4.23,4.23,0,0,1-1.36-1.16A2.77,2.77,0,0,1,409.58,72l13.9,7.35a2.52,2.52,0,0,1,.71.54,2.76,2.76,0,0,1-1.55,5Z" fill="#1d1d1b" clip-path="url(#b)"/></clipPath><clipPath id="s"><path d="M393.11,44.32a2.71,2.71,0,0,1-1.29-.32l-13.9-7.34a2.79,2.79,0,0,1-1.4-1.81,2.76,2.76,0,0,1,.45-2.24,4.17,4.17,0,0,1,3.31-1.77,4.23,4.23,0,0,1,2.06.48h0l13.89,7.34h0a2.77,2.77,0,0,1-1.59,5.2A2.78,2.78,0,0,1,393.11,44.32Zm-13.35-8.11Z" fill="#1d1d1b" clip-path="url(#c)"/></clipPath><clipPath id="t"><path d="M365,87.81a2.81,2.81,0,0,1-1.3-.32l-13.9-7.35a3.41,3.41,0,0,1,3.71-5.5l13.1,6.93c.13.07.27.15.42.25A2.76,2.76,0,0,1,368.39,86a4.23,4.23,0,0,1-3.15,1.76Z" fill="#1d1d1b" clip-path="url(#d)"/></clipPath><clipPath id="u"><path d="M365,87.81a2.77,2.77,0,0,1-1.29-.32l-13.9-7.34a2.77,2.77,0,0,1,1.09-5.2h0a2.54,2.54,0,0,1,1.5.32l13.9,7.34a2.77,2.77,0,0,1-1.09,5.2H365Z" fill="#1d1d1b" clip-path="url(#e)"/></clipPath><clipPath id="v"><path d="M365,87.81a4.13,4.13,0,0,1-1.94-.48L349.13,80h0a2.89,2.89,0,0,1,3.25-4.73l13.9,7.34A2.76,2.76,0,0,1,365,87.81Zm.65-5.37Z" fill="#1d1d1b" clip-path="url(#f)"/></clipPath><clipPath id="w"><path d="M364.3,87.64a2.71,2.71,0,0,1-1.29-.32h0L349.11,80a4.15,4.15,0,0,1-1.18-.94,2.77,2.77,0,0,1,3.38-4.26l13.9,7.35a2.37,2.37,0,0,1,.61.44,2.76,2.76,0,0,1-1.52,5.07Zm1.3-5.21h0Z" fill="#1d1d1b" clip-path="url(#g)"/></clipPath><clipPath id="x"><path d="M329.41,129a2.71,2.71,0,0,1-1.29-.32h0l-13.9-7.34a4.18,4.18,0,0,1-2.22-3.71,2.76,2.76,0,0,1,4.06-2.43L330,122.5a5.39,5.39,0,0,1,1.89,5A2.74,2.74,0,0,1,329.41,129Zm1.29-5.2Z" fill="#1d1d1b"/></clipPath><clipPath id="y"><path d="M328.88,46.29a2.68,2.68,0,0,1-1.29-.32l-13.9-7.34a2.77,2.77,0,0,1-1.48-2.45,4.26,4.26,0,0,1,2.69-3.93,4,4,0,0,1,1.46-.29,4.07,4.07,0,0,1,2,.48l13.9,7.34h0a2.77,2.77,0,0,1-1,5.2,2.73,2.73,0,0,1-.93.92A2.79,2.79,0,0,1,328.88,46.29Z" fill="#1d1d1b" clip-path="url(#h)"/></clipPath></defs><path d="M12.13,185.74h41.5v27.75H32.88v48.25h15v29.5h-15v50.5H53.63v27.75H12.13Z" fill="#1d1d1b"/><path d="M110.88,320.49v17.25c0,17.75-5.5,33.75-24.75,33.75-17.5,0-21.75-18.75-21.75-34.5V265.74c0-16.25,6.25-35,23-35,21,0,23.5,18.5,23.5,34.25v40.75H83.63v29.75c0,5.5,1,13.75,3.75,13.75,4,0,4.75-9,4.75-13.75v-15ZM83.63,286h8.5V266.74c0-6.75-.75-14-5-14-3.25,0-3.5,10-3.5,14Z" fill="#1d1d1b"/><path d="M140.62,369.49H120.87V232.74h19.75v7c2.5-3.75,9-9,13.25-9,12.5,0,13.5,18.5,13.5,26.75v112h-19.5v-108c0-5.25-1.25-8.75-3.75-8.75s-3.5,3.75-3.5,9Z" fill="#1d1d1b"/><path d="M225.87,185.74v52.75l13.5-52.75h20.25L241.37,253l17.75,116.5H238.87l-13-87.5v87.5h-20V185.74Z" fill="#ea5b0c"/><path d="M318.37,334.24c0,19-6,37.25-25,37.25-19.5,0-25.25-19.75-25.25-37.25V221c0-19,6.5-37.25,25.25-37.25,20,0,25,22.25,25,37.25ZM297.62,221c0-5.75-1.25-11-4-11s-4.25,5-4.25,11V334.24c0,6.75,2,11,4.25,11,2.5,0,4-5.25,4-11Z" fill="#ea5b0c"/><path d="M349.36,280.24v89.25H330.11V185.74h17.5l15,86.75V185.74h19.25V369.49h-17.5Z" fill="#ea5b0c"/><path d="M396.86,185.74h20.75V369.49H396.86Z" fill="#ea5b0c"/><path d="M451.86,280.24v89.25H432.61V185.74h17.5l15,86.75V185.74h19.25V369.49h-17.5Z" fill="#ea5b0c"/><path d="M526.61,251.74V221c0-3.75-.5-11-4-11-2.75,0-3.75,6.5-3.75,11v115.5c0,5.75,1.25,11,4.25,11,4.5,0,5-6.5,5-11V300.74h-4.5V278h23.75v91.5H536.61l-2.25-6.75c-2.25,4.5-9.25,8.75-13.75,8.75-18.5,0-22.75-24.25-22.75-37.25V221c0-16.5,6-37.25,24.75-37.25,20,0,24.75,22.5,24.75,37.25v30.75Z" fill="#ea5b0c"/><path d="M634.6,369.49H614.85V362c-1.25,3-7.75,9.5-14.25,9.5-12.25,0-11-17-11.25-26.75V257.49c0-11.25,2.5-26.75,15.25-26.75,3.5,0,9.5,4.5,10.25,7.75V185.74H634.6ZM614.85,261.74c0-4-1-9-3.5-9-2.25,0-3.5,4.25-3.5,9v76.5c0,5,.75,9.5,3.5,9.5,2.5,0,3.5-4.75,3.5-9.5Z" fill="#1d1d1b"/><path d="M645.6,185.74h19.75V211H645.6Zm0,183.75V232.74h19.75V369.49Z" fill="#1d1d1b"/><path d="M723.35,320.49v17.25c0,17.75-5.5,33.75-24.75,33.75-17.5,0-21.75-18.75-21.75-34.5V265.74c0-16.25,6.25-35,23-35,21,0,23.5,18.5,23.5,34.25v40.75H696.1v29.75c0,5.5,1,13.75,3.75,13.75,4,0,4.75-9,4.75-13.75v-15ZM696.1,286h8.5V266.74c0-6.75-.75-14-5-14-3.25,0-3.5,10-3.5,14Z" fill="#1d1d1b"/><path d="M785.34,264c0-4.25-1-11.5-3.25-11.5-2.5,0-3.5,8-3.5,11.5v9h-19v-8.25c0-15.25,6.75-34,23.25-34,15.25,0,21.5,18.25,21,31v84a168.51,168.51,0,0,0,1.25,23.75H788.34a46.36,46.36,0,0,1-3-8.25c-2,5.25-6.75,10.25-12.75,10.25-13.5,0-14.25-25.25-14.25-33.75,0-19,5-37.25,19-49.25,3.25-2.75,7.25-7,8-9.75Zm-.25,42.75c-4.5,5.75-8.75,19.75-8.75,30.75,0,.75,0,10.25,3.5,10.25,3.25,0,5.25-4.5,5.25-9.25Z" fill="#1d1d1b"/><path d="M817.59,369.49V185.74h19.75V369.49Z" fill="#1d1d1b"/><path d="M851.84,369.49V185.74h19.75V369.49Z" fill="#1d1d1b"/><path d="M930.84,320.49v17.25c0,17.75-5.5,33.75-24.75,33.75-17.5,0-21.75-18.75-21.75-34.5V265.74c0-16.25,6.25-35,23-35,21,0,23.5,18.5,23.5,34.25v40.75H903.59v29.75c0,5.5,1,13.75,3.75,13.75,4,0,4.75-9,4.75-13.75v-15ZM903.59,286h8.5V266.74c0-6.75-.75-14-5-14-3.25,0-3.5,10-3.5,14Z" fill="#1d1d1b"/><path d="M966.09,267.74c0-4.25-.75-16-4.5-16-3.25,0-3.5,9-3.5,14.25,0,10.75,5.75,20,9.5,27.25,6.5,10.75,15,25.75,15,45.25,0,11.75-3.25,33-22.75,33-21.25,0-22.75-23.25-22.75-41.75h18c0,8.75,1.25,20.75,4.75,20.75s4-6,4-16.5c0-8.75-5.25-19-10.25-29.5-6.5-13-14-23.5-14-41.25,0-17.5,6.5-32.5,21.5-32.5,20.5,0,22,23.5,22,37Z" fill="#1d1d1b"/><path d="M47.13,592.49l-5.75-65-5.5,65h-16L7.63,455.74H25.38l4.75,62.75,5.5-62.75h12l5.25,62.75,4.75-62.75H75.38l-12,136.75Z" fill="#1d1d1b"/><path d="M108.63,487c0-4.25-1-11.5-3.25-11.5-2.5,0-3.5,8-3.5,11.5v9h-19v-8.25c0-15.25,6.75-34,23.25-34,15.25,0,21.5,18.25,21,31v84a168.51,168.51,0,0,0,1.25,23.75H111.63a46.36,46.36,0,0,1-3-8.25c-2,5.25-6.75,10.25-12.75,10.25-13.5,0-14.25-25.25-14.25-33.75,0-19,5-37.25,19-49.25,3.25-2.75,7.25-7,8-9.75Zm-.25,42.75c-4.5,5.75-8.75,19.75-8.75,30.75,0,.75,0,10.25,3.5,10.25,3.25,0,5.25-4.5,5.25-9.25Z" fill="#1d1d1b"/><path d="M164.13,422v33.75h10.5v22.75h-10.5v114H144.88v-114h-8.25V455.74h8.25V422Z" fill="#1d1d1b"/><path d="M230.38,592.49H210.63V408.74h19.75v52.75c.5-3.25,6.5-7.75,10.75-7.75,12.5,0,14.5,18.5,14.5,26.75v112H236.88V484.74c0-3-.25-9-3.25-9-2.75,0-3.25,5.75-3.25,9Z" fill="#1d1d1b"/><path d="M267.87,408.74h19.75V434H267.87Zm0,183.75V455.74h19.75V592.49Z" fill="#1d1d1b"/><path d="M320.12,455.74V596c0,7,0,18-2.25,27-2.25,8.75-8,16.5-17.5,16.5a18.16,18.16,0,0,1-8.75-2l.5-22.75c9,3,8.25-7.5,8.25-13.25V455.74Zm-19.75-47h19.75V434H300.37Z" fill="#1d1d1b"/><path d="M386.62,487c0-4.25-1-11.5-3.25-11.5-2.5,0-3.5,8-3.5,11.5v9h-19v-8.25c0-15.25,6.75-34,23.25-34,15.25,0,21.5,18.25,21,31v84a168.51,168.51,0,0,0,1.25,23.75H389.62a46.36,46.36,0,0,1-3-8.25c-2,5.25-6.75,10.25-12.75,10.25-13.5,0-14.25-25.25-14.25-33.75,0-19,5-37.25,19-49.25,3.25-2.75,7.25-7,8-9.75Zm-.25,42.75c-4.5,5.75-8.75,19.75-8.75,30.75,0,.75,0,10.25,3.5,10.25,3.25,0,5.25-4.5,5.25-9.25Z" fill="#1d1d1b"/><path d="M444.11,487c0-4.25-1-11.5-3.25-11.5-2.5,0-3.5,8-3.5,11.5v9h-19v-8.25c0-15.25,6.75-34,23.25-34,15.25,0,21.5,18.25,21,31v84a168.51,168.51,0,0,0,1.25,23.75H447.11a46.36,46.36,0,0,1-3-8.25c-2,5.25-6.75,10.25-12.75,10.25-13.5,0-14.25-25.25-14.25-33.75,0-19,5-37.25,19-49.25,3.25-2.75,7.25-7,8-9.75Zm-.25,42.75c-4.5,5.75-8.75,19.75-8.75,30.75,0,.75,0,10.25,3.5,10.25,3.25,0,5.25-4.5,5.25-9.25Z" fill="#1d1d1b"/><path d="M496.12,592.49H476.37V455.74h19.75v7c2.5-3.75,9-9,13.25-9,12.5,0,13.5,18.5,13.5,26.75v112h-19.5v-108c0-5.25-1.25-8.75-3.75-8.75s-3.5,3.75-3.5,9Z" fill="#1d1d1b"/><path d="M570.36,483.74c-11.75-6.75-16.75,3-16.75,13.75v95H534.36V455.74h19.25v7.5a18.88,18.88,0,0,1,16.75-9.5Z" fill="#1d1d1b"/><path d="M601.36,487c0-4.25-1-11.5-3.25-11.5-2.5,0-3.5,8-3.5,11.5v9h-19v-8.25c0-15.25,6.75-34,23.25-34,15.25,0,21.5,18.25,21,31v84a168.51,168.51,0,0,0,1.25,23.75H604.36a46.36,46.36,0,0,1-3-8.25c-2,5.25-6.75,10.25-12.75,10.25-13.5,0-14.25-25.25-14.25-33.75,0-19,5-37.25,19-49.25,3.25-2.75,7.25-7,8-9.75Zm-.25,42.75c-4.5,5.75-8.75,19.75-8.75,30.75,0,.75,0,10.25,3.5,10.25,3.25,0,5.25-4.5,5.25-9.25Z" fill="#1d1d1b"/><path d="M658.86,487c0-4.25-1-11.5-3.25-11.5-2.5,0-3.5,8-3.5,11.5v9h-19v-8.25c0-15.25,6.75-34,23.25-34,15.25,0,21.5,18.25,21,31v84a168.51,168.51,0,0,0,1.25,23.75H661.86a46.36,46.36,0,0,1-3-8.25c-2,5.25-6.75,10.25-12.75,10.25-13.5,0-14.25-25.25-14.25-33.75,0-19,5-37.25,19-49.25,3.25-2.75,7.25-7,8-9.75Zm-.25,42.75c-4.5,5.75-8.75,19.75-8.75,30.75,0,.75,0,10.25,3.5,10.25,3.25,0,5.25-4.5,5.25-9.25Z" fill="#1d1d1b"/><path d="M710.86,408.74v75.5l9.25-28.5h19l-16.75,47,16.25,89.75h-19l-8.75-58v58h-19V408.74Z" fill="#1d1d1b"/><path d="M770.61,422v33.75h10.5v22.75h-10.5v114H751.36v-114h-8.25V455.74h8.25V422Z" fill="#1d1d1b"/><path d="M835.36,543.49v17.25c0,17.75-5.5,33.75-24.75,33.75-17.5,0-21.75-18.75-21.75-34.5V488.74c0-16.25,6.25-35,23-35,21,0,23.5,18.5,23.5,34.25v40.75H808.11v29.75c0,5.5,1,13.75,3.75,13.75,4,0,4.75-9,4.75-13.75v-15ZM808.11,509h8.5V489.74c0-6.75-.75-14-5-14-3.25,0-3.5,10-3.5,14Z" fill="#1d1d1b"/><path d="M872.85,408.74H892.6V434H872.85Zm0,183.75V455.74H892.6V592.49Z" fill="#1d1d1b"/><path d="M925.6,592.49H905.85V455.74H925.6v7c2.5-3.75,9-9,13.25-9,12.5,0,13.5,18.5,13.5,26.75v112h-19.5v-108c0-5.25-1.25-8.75-3.75-8.75s-3.5,3.75-3.5,9Z" fill="#1d1d1b"/><path d="M39.38,697.74V667c0-3.75-.5-11-4-11-2.75,0-3.75,6.5-3.75,11v115.5c0,5.75,1.25,11,4.25,11,4.5,0,5-6.5,5-11V746.74h-4.5V724H60.13v91.5H49.38l-2.25-6.75c-2.25,4.5-9.25,8.75-13.75,8.75-18.5,0-22.75-24.25-22.75-37.25V667c0-16.5,6-37.25,24.75-37.25,20,0,24.75,22.5,24.75,37.25v30.75Z" fill="#ea5b0c"/><path d="M122.38,780.24c0,19-6,37.25-25,37.25-19.5,0-25.25-19.75-25.25-37.25V667c0-19,6.5-37.25,25.25-37.25,20,0,25,22.25,25,37.25ZM101.63,667c0-5.75-1.25-11-4-11s-4.25,5-4.25,11V780.24c0,6.75,2,11,4.25,11,2.5,0,4-5.25,4-11Z" fill="#ea5b0c"/><path d="M181.62,631.74v148.5c0,20.75-5.75,37.25-24.5,37.25-20,0-24.75-18.5-24.75-37.25V631.74h20.75v148.5c0,7,.75,11,4,11,3,0,3.75-5,3.75-11V631.74Z" fill="#ea5b0c"/><path d="M196.62,815.49V631.74h17.25c16.5,0,23,5,27.5,19,4.25,14,4.75,37,4.75,73s0,64.5-3.75,75.5c-3.25,9.75-9.25,16.25-25.75,16.25Zm20.75-27c3.25,0,8.25.75,8.25-14v-43c0-37.75.5-55.5-.75-66.75-.75-6.5-4.5-5.75-7.5-6Z" fill="#ea5b0c"/><path d="M296.62,815.49l-14.5-136.75h18.5L306.37,759l6-80.25h18.5L316.12,815.49Z" fill="#1d1d1b"/><path d="M382.87,766.49v17.25c0,17.75-5.5,33.75-24.75,33.75-17.5,0-21.75-18.75-21.75-34.5V711.74c0-16.25,6.25-35,23-35,21,0,23.5,18.5,23.5,34.25v40.75H355.62v29.75c0,5.5,1,13.75,3.75,13.75,4,0,4.75-9,4.75-13.75v-15ZM355.62,732h8.5V712.74c0-6.75-.75-14-5-14-3.25,0-3.5,10-3.5,14Z" fill="#1d1d1b"/><path d="M428.87,706.74c-11.75-6.75-16.75,3-16.75,13.75v95H392.87V678.74h19.25v7.5a18.88,18.88,0,0,1,16.75-9.5Z" fill="#1d1d1b"/><path d="M459.87,710c0-4.25-1-11.5-3.25-11.5-2.5,0-3.5,8-3.5,11.5v9h-19v-8.25c0-15.25,6.75-34,23.25-34,15.25,0,21.5,18.25,21,31v84a168.51,168.51,0,0,0,1.25,23.75H462.87a46.36,46.36,0,0,1-3-8.25c-2,5.25-6.75,10.25-12.75,10.25-13.5,0-14.25-25.25-14.25-33.75,0-19,5-37.25,19-49.25,3.25-2.75,7.25-7,8-9.75Zm-.25,42.75c-4.5,5.75-8.75,19.75-8.75,30.75,0,.75,0,10.25,3.5,10.25,3.25,0,5.25-4.5,5.25-9.25Z" fill="#1d1d1b"/><path d="M511.87,815.49H492.12V678.74h19.75v7c2.5-3.75,9-9,13.25-9,12.5,0,13.5,18.5,13.5,26.75v112h-19.5v-108c0-5.25-1.25-8.75-3.75-8.75s-3.5,3.75-3.5,9Z" fill="#1d1d1b"/><path d="M596.87,815.49H577.12V808c-1.25,3-7.75,9.5-14.25,9.5-12.25,0-11-17-11.25-26.75V703.49c0-11.25,2.5-26.75,15.25-26.75,3.5,0,9.5,4.5,10.25,7.75V631.74h19.75ZM577.12,707.74c0-4-1-9-3.5-9-2.25,0-3.5,4.25-3.5,9v76.5c0,5,.75,9.5,3.5,9.5,2.5,0,3.5-4.75,3.5-9.5Z" fill="#1d1d1b"/><path d="M653.11,766.49v17.25c0,17.75-5.5,33.75-24.75,33.75-17.5,0-21.75-18.75-21.75-34.5V711.74c0-16.25,6.25-35,23-35,21,0,23.5,18.5,23.5,34.25v40.75H625.86v29.75c0,5.5,1,13.75,3.75,13.75,4,0,4.75-9,4.75-13.75v-15ZM625.86,732h8.5V712.74c0-6.75-.75-14-5-14-3.25,0-3.5,10-3.5,14Z" fill="#1d1d1b"/><path d="M699.11,706.74c-11.75-6.75-16.75,3-16.75,13.75v95H663.11V678.74h19.25v7.5a18.88,18.88,0,0,1,16.75-9.5Z" fill="#1d1d1b"/><path d="M754.36,815.49H734.61V808c-1.25,3-7.75,9.5-14.25,9.5-12.25,0-11-17-11.25-26.75V703.49c0-11.25,2.5-26.75,15.25-26.75,3.5,0,9.5,4.5,10.25,7.75V631.74h19.75ZM734.61,707.74c0-4-1-9-3.5-9-2.25,0-3.5,4.25-3.5,9v76.5c0,5,.75,9.5,3.5,9.5,2.5,0,3.5-4.75,3.5-9.5Z" fill="#1d1d1b"/><path d="M810.61,766.49v17.25c0,17.75-5.5,33.75-24.75,33.75-17.5,0-21.75-18.75-21.75-34.5V711.74c0-16.25,6.25-35,23-35,21,0,23.5,18.5,23.5,34.25v40.75H783.36v29.75c0,5.5,1,13.75,3.75,13.75,4,0,4.75-9,4.75-13.75v-15ZM783.36,732h8.5V712.74c0-6.75-.75-14-5-14-3.25,0-3.5,10-3.5,14Z" fill="#1d1d1b"/><path d="M819.1,787.74h20.25v27.75H819.1Z" fill="#ea5b0c"/><polygon points="455.52 124.84 441.62 117.49 441.82 41.35 455.72 48.7 455.52 124.84" fill="#fff"/><path d="M455.52,127.6a2.83,2.83,0,0,1-1.29-.32l-13.9-7.34a2.75,2.75,0,0,1-1.47-2.45l.2-76.14a2.77,2.77,0,0,1,4.05-2.44L457,46.25a2.75,2.75,0,0,1,1.47,2.46l-.19,76.13a2.75,2.75,0,0,1-2.77,2.76Zm-11.13-11.77,8.38,4.43.18-69.9-8.38-4.43Z" fill="#1d1d1b"/><g style="isolation:isolate"><path d="M443.93,36.21l13.9,7.35-.17-.08-13.9-7.34Z" fill="#fff"/><path d="M457.83,46.32a2.67,2.67,0,0,1-1.2-.28,1.23,1.23,0,0,1-.26-.12l-13.9-7.34a2.76,2.76,0,0,1,2.24-5,4.83,4.83,0,0,1,.52.23l13.89,7.34h0a2.76,2.76,0,0,1-1.3,5.2ZM456.54,46Zm-13.9-7.34Z" fill="#1d1d1b"/><g clip-path="url(#m)"><g style="isolation:isolate"><path d="M457.66,43.48l-13.9-7.34.17.07,13.9,7.35-.17-.08" fill="#fff"/><path d="M457.83,46.32a2.67,2.67,0,0,1-1.2-.28,1.23,1.23,0,0,1-.26-.12l-13.9-7.34a2.76,2.76,0,0,1,2.24-5,4.83,4.83,0,0,1,.52.23l13.89,7.34h0a2.76,2.76,0,0,1-1.3,5.2Zm-1.1-.24Zm-.19-.08Z" fill="#1d1d1b"/></g></g></g><g style="isolation:isolate"><path d="M456.09,43.91l-13.9-7.35a1.46,1.46,0,0,1,1.07-.51,1.43,1.43,0,0,1,.5.09l13.9,7.34a1.22,1.22,0,0,0-.5-.08A1.39,1.39,0,0,0,456.09,43.91Z" fill="#fff"/><path d="M456.09,46.67a2.68,2.68,0,0,1-1.29-.32L440.9,39a2.79,2.79,0,0,1-1.43-1.93,2.75,2.75,0,0,1,.62-2.32,4.25,4.25,0,0,1,3.12-1.47,4.46,4.46,0,0,1,1.5.25,2.07,2.07,0,0,1,.34.15L459,41a3.69,3.69,0,0,1-2.86,5.63Z" fill="#1d1d1b"/><g clip-path="url(#n)"><g style="isolation:isolate"><path d="M456.09,43.91l-13.9-7.35a2,2,0,0,1,.21-.2l13.9,7.34a1.39,1.39,0,0,0-.21.21" fill="#fff"/><path d="M456.09,46.67a2.68,2.68,0,0,1-1.29-.32L440.9,39a2.79,2.79,0,0,1-1.43-1.93,2.75,2.75,0,0,1,.62-2.32,4.3,4.3,0,0,1,.62-.59,2.8,2.8,0,0,1,3-.26l13.9,7.35a2.94,2.94,0,0,1-1.51,5.41Zm2.09-1Z" fill="#1d1d1b"/><path d="M456.3,43.7l-13.9-7.34a1.75,1.75,0,0,1,.25-.16l13.9,7.34-.25.16" fill="#fff"/><path d="M456.3,46.46a2.71,2.71,0,0,1-1.29-.32l-13.9-7.34a2.77,2.77,0,0,1-.4-4.63,4.37,4.37,0,0,1,.72-.45,2.74,2.74,0,0,1,2.51,0l13.9,7.34a2.91,2.91,0,0,1-1.54,5.36Z" fill="#1d1d1b"/><path d="M456.55,43.54l-13.9-7.34.24-.09,13.9,7.34-.24.09" fill="#fff"/><path d="M456.55,46.31a2.8,2.8,0,0,1-1.29-.32l-13.9-7.34a2.77,2.77,0,0,1,.06-4.92,3.79,3.79,0,0,1,.7-.28,2.78,2.78,0,0,1,2.06.21L458.08,41a2.88,2.88,0,0,1-1.53,5.3Z" fill="#1d1d1b"/><path d="M456.79,43.45l-13.9-7.34a1.11,1.11,0,0,1,.25,0L457,43.4l-.25.05" fill="#fff"/><path d="M456.79,46.22a2.77,2.77,0,0,1-1.29-.32l-13.9-7.35a2.76,2.76,0,0,1,.52-5.1,4,4,0,0,1,.75-.14,2.76,2.76,0,0,1,1.57.31L458.34,41a2.76,2.76,0,0,1-.9,5.18A2.82,2.82,0,0,1,456.79,46.22Z" fill="#1d1d1b"/><path d="M457,43.4l-13.9-7.34h.31l13.9,7.35H457" fill="#fff"/><path d="M457.35,46.17h-.18a2.71,2.71,0,0,1-1.42-.31l-13.9-7.35a2.76,2.76,0,0,1,1-5.19l.33,0,.59,0a2.59,2.59,0,0,1,.94.3L458.64,41a2.76,2.76,0,0,1-1.29,5.21Zm0,0Z" fill="#1d1d1b"/><path d="M457.35,43.41l-13.9-7.35a1.57,1.57,0,0,1,.31.08l13.9,7.34a1.08,1.08,0,0,0-.31-.07" fill="#fff"/><path d="M457.66,46.25a2.72,2.72,0,0,1-.8-.12,2.82,2.82,0,0,1-.8-.28l-13.9-7.34a2.77,2.77,0,0,1,1.62-5.19,4.2,4.2,0,0,1,.93.22,2.07,2.07,0,0,1,.34.15L459,41a2.76,2.76,0,0,1-1.29,5.21Zm-.65-.1h0Z" fill="#1d1d1b"/></g></g></g><polygon points="424.4 81.83 410.5 74.49 441.9 37.8 455.8 45.15 424.4 81.83" fill="#fff"/><path d="M424.4,84.6a2.83,2.83,0,0,1-1.29-.32l-13.9-7.35A2.75,2.75,0,0,1,407.78,75a2.79,2.79,0,0,1,.62-2.32L439.8,36a2.77,2.77,0,0,1,3.39-.65l13.9,7.34A2.78,2.78,0,0,1,457.9,47L426.5,83.63A2.78,2.78,0,0,1,424.4,84.6Zm-9.55-10.94,8.89,4.7L451.45,46l-8.89-4.7Z" fill="#1d1d1b"/><g style="isolation:isolate"><path d="M409.4,75a1.49,1.49,0,0,0,1.1-.51l13.9,7.34h0l-13.86-7.32,13.86,7.32a1.5,1.5,0,0,1-1.1.5Z" fill="#fff"/><path d="M423.3,85.11a2.77,2.77,0,0,1-1.29-.32l-13.9-7.35a3.34,3.34,0,0,1,3.68-5.39l13.9,7.34a2.76,2.76,0,0,1,.83,4.21h0l0,.06a4.24,4.24,0,0,1-3.08,1.45ZM408.41,72.67h0Z" fill="#1d1d1b"/><g clip-path="url(#o)"><g style="isolation:isolate"><path d="M423.27,82.34,409.37,75h.15l13.9,7.35h-.15" fill="#fff"/><path d="M423.27,85.11a2.77,2.77,0,0,1-1.29-.32l-13.9-7.35a2.76,2.76,0,0,1,1.2-5.2,2.71,2.71,0,0,1,1.53.31l13.9,7.34a2.77,2.77,0,0,1-1,5.2l-.36,0Z" fill="#1d1d1b"/><path d="M423.42,82.34,409.52,75l.28,0,13.9,7.34a1.4,1.4,0,0,1-.28.06" fill="#fff"/><path d="M423.42,85.1a2.81,2.81,0,0,1-1.3-.32l-13.9-7.34a2.86,2.86,0,0,1,2.87-5L425,79.84a2.76,2.76,0,0,1-.53,5.1,5,5,0,0,1-.77.15Z" fill="#1d1d1b"/><path d="M423.7,82.28l-13.9-7.34a1.73,1.73,0,0,0,.24-.1l13.9,7.35a1.7,1.7,0,0,1-.24.09" fill="#fff"/><path d="M423.7,85.05a2.77,2.77,0,0,1-1.29-.32l-13.9-7.35a2.86,2.86,0,0,1,2.82-5l13.9,7.34a2.76,2.76,0,0,1-.06,4.92,4.65,4.65,0,0,1-.7.28A2.87,2.87,0,0,1,423.7,85.05Z" fill="#1d1d1b"/><path d="M423.94,82.19,410,74.84a1.28,1.28,0,0,0,.25-.15L424.19,82l-.25.16" fill="#fff"/><path d="M423.94,85a2.83,2.83,0,0,1-1.29-.32l-13.9-7.34a2.89,2.89,0,0,1,2.83-5l13.9,7.34a2.77,2.77,0,0,1,.4,4.63,4,4,0,0,1-.71.44A2.68,2.68,0,0,1,423.94,85Z" fill="#1d1d1b"/><path d="M424.19,82l-13.9-7.34.21-.2,13.9,7.34a1.94,1.94,0,0,1-.21.2" fill="#fff"/><path d="M424.19,84.8a2.8,2.8,0,0,1-1.29-.32L409,77.13a2.76,2.76,0,0,1-1.47-2.2,2.8,2.8,0,0,1,1-2.35,2.76,2.76,0,0,1,3.29-.53l13.9,7.34a2.76,2.76,0,0,1,.79,4.26,4,4,0,0,1-.6.57A2.79,2.79,0,0,1,424.19,84.8Z" fill="#1d1d1b"/></g></g></g><g style="isolation:isolate"><path d="M409.37,75h0l13.9,7.34h0Z" fill="#fff"/><path d="M423.28,85.11a2.81,2.81,0,0,1-1.3-.32l-13.9-7.35a2.76,2.76,0,0,1,1.19-5.2h.12a2.81,2.81,0,0,1,1.3.32l13.9,7.34a2.77,2.77,0,0,1-1.24,5.21Z" fill="#1d1d1b"/><g clip-path="url(#p)"><g style="isolation:isolate"><path d="M423.27,82.34,409.37,75h.15l13.9,7.35h-.15" fill="#fff"/><path d="M423.27,85.11a2.77,2.77,0,0,1-1.29-.32l-13.9-7.35a2.76,2.76,0,0,1,1.2-5.2,2.71,2.71,0,0,1,1.53.31l13.9,7.34a2.77,2.77,0,0,1-1,5.2l-.36,0Z" fill="#1d1d1b"/></g></g></g><g style="isolation:isolate"><path d="M422.65,82.18l-13.9-7.34a1.33,1.33,0,0,0,.62.16l13.9,7.34A1.33,1.33,0,0,1,422.65,82.18Z" fill="#fff"/><path d="M423.27,85.11h-.06a4.34,4.34,0,0,1-1.85-.48l-13.9-7.35h0a2.76,2.76,0,0,1,2.29-5,2.87,2.87,0,0,1,.91.3l13.9,7.34a2.76,2.76,0,0,1-1.29,5.21Zm.67-5.37Z" fill="#1d1d1b"/><g clip-path="url(#q)"><g style="isolation:isolate"><path d="M422.65,82.18l-13.9-7.34a1.34,1.34,0,0,0,.48.15l13.9,7.34a1.34,1.34,0,0,1-.48-.15" fill="#fff"/><path d="M423.13,85.1l-.33,0a4.48,4.48,0,0,1-1.44-.45l-13.9-7.34h0a2.76,2.76,0,0,1,2.36-5,2.57,2.57,0,0,1,.7.26l13.9,7.34a2.76,2.76,0,0,1-1.29,5.21Zm.81-5.36Zm-14.37-7.49h0Z" fill="#1d1d1b"/><path d="M423.13,82.33,409.23,75h.14l13.9,7.34h-.14" fill="#fff"/><path d="M423.27,85.11h-.08l-.4,0a2.93,2.93,0,0,1-1-.3l-13.9-7.35a2.79,2.79,0,0,1,2.72-4.87l13.9,7.34a2.76,2.76,0,0,1-1.29,5.21Z" fill="#1d1d1b"/></g></g></g><g style="isolation:isolate"><path d="M422.64,82.17l-13.9-7.34a1.27,1.27,0,0,1-.45-.38l13.9,7.34A1.27,1.27,0,0,0,422.64,82.17Z" fill="#fff"/><path d="M422.64,84.94a2.71,2.71,0,0,1-1.29-.32l-13.9-7.34a4.23,4.23,0,0,1-1.36-1.16A2.77,2.77,0,0,1,409.58,72l13.9,7.35a2.52,2.52,0,0,1,.71.54,2.76,2.76,0,0,1-1.55,5Z" fill="#1d1d1b"/><g clip-path="url(#r)"><g style="isolation:isolate"><path d="M422.64,82.17l-13.9-7.34a1.27,1.27,0,0,1-.45-.38l13.9,7.34a1.27,1.27,0,0,0,.45.38" fill="#fff"/><path d="M422.64,84.94a2.71,2.71,0,0,1-1.29-.32l-13.9-7.34a4.23,4.23,0,0,1-1.36-1.16A2.77,2.77,0,0,1,409.58,72l13.9,7.35a2.52,2.52,0,0,1,.71.54,2.76,2.76,0,0,1-1.55,5Z" fill="#1d1d1b"/></g></g></g><polygon points="423.42 78.62 409.51 71.27 442.26 33.01 456.16 40.36 423.42 78.62" fill="#fff"/><path d="M423.41,82.07a3.46,3.46,0,0,1-1.61-.4l-13.9-7.34a3.45,3.45,0,0,1-1-5.3l32.75-38.26a3.45,3.45,0,0,1,4.24-.81l13.9,7.34a3.45,3.45,0,0,1,1,5.3L426,80.86A3.44,3.44,0,0,1,423.41,82.07ZM415,70.24l7.64,4,28.14-32.88-7.64-4Z" fill="#1d1d1b"/><polygon points="422.19 81.79 408.29 74.45 380.38 37.47 394.29 44.81 422.19 81.79" fill="#fff"/><path d="M422.19,84.55a2.71,2.71,0,0,1-1.29-.32L407,76.89a2.76,2.76,0,0,1-.92-.78l-27.9-37a2.76,2.76,0,0,1,3.5-4.11l13.9,7.35a2.81,2.81,0,0,1,.91.77l27.91,37a2.76,2.76,0,0,1-2.21,4.42ZM410.12,72.29l2.39,1.26L392.45,47l-2.38-1.26Z" fill="#1d1d1b"/><g style="isolation:isolate"><path d="M381.05,33.77,395,41.11a1.35,1.35,0,0,0-.69-.16,1.44,1.44,0,0,0-1.15.61l-13.9-7.34a1.41,1.41,0,0,1,1.84-.45Z" fill="#fff"/><path d="M393.11,44.32a2.71,2.71,0,0,1-1.29-.32l-13.9-7.34a2.79,2.79,0,0,1-1.4-1.81,2.76,2.76,0,0,1,.45-2.24,4.17,4.17,0,0,1,3.31-1.77,4.23,4.23,0,0,1,2.06.48h0l13.89,7.34h0a2.77,2.77,0,0,1-1.59,5.2A2.78,2.78,0,0,1,393.11,44.32Zm-13.35-8.11Z" fill="#1d1d1b"/><g clip-path="url(#s)"><g style="isolation:isolate"><path d="M393.11,41.56l-13.9-7.34a1.48,1.48,0,0,1,.3-.31l13.9,7.34a1.77,1.77,0,0,0-.3.31" fill="#fff"/><path d="M393.11,44.32a2.71,2.71,0,0,1-1.29-.32l-13.9-7.34a2.79,2.79,0,0,1-1.4-1.81,2.76,2.76,0,0,1,.45-2.24,4.23,4.23,0,0,1,.85-.89,2.8,2.8,0,0,1,3-.26l13.9,7.34a3,3,0,0,1-1.6,5.52Z" fill="#1d1d1b"/><path d="M393.41,41.25l-13.9-7.34a1.32,1.32,0,0,1,.25-.16l13.9,7.35a1.28,1.28,0,0,0-.25.15" fill="#fff"/><path d="M393.41,44a2.71,2.71,0,0,1-1.29-.32l-13.9-7.34a2.77,2.77,0,0,1-.4-4.63,4.73,4.73,0,0,1,.71-.45,2.77,2.77,0,0,1,2.52,0L395,38.65A2.91,2.91,0,0,1,393.41,44Z" fill="#1d1d1b"/><path d="M393.66,41.1l-13.9-7.35a.85.85,0,0,1,.24-.09L393.9,41a1.33,1.33,0,0,0-.24.1" fill="#fff"/><path d="M393.66,43.86a2.8,2.8,0,0,1-1.29-.32l-13.9-7.34a2.76,2.76,0,0,1,.06-4.92,3.49,3.49,0,0,1,.7-.27,2.74,2.74,0,0,1,2.06.21l13.9,7.34a2.88,2.88,0,0,1-1.53,5.3Z" fill="#1d1d1b"/><path d="M393.9,41,380,33.66l.25,0L394.15,41l-.25,0" fill="#fff"/><path d="M393.9,43.77a2.84,2.84,0,0,1-1.3-.32L378.7,36.1a2.77,2.77,0,0,1,.53-5.1,4.52,4.52,0,0,1,.75-.14,2.73,2.73,0,0,1,1.56.31l13.9,7.34a2.76,2.76,0,0,1-.9,5.18A2.8,2.8,0,0,1,393.9,43.77Z" fill="#1d1d1b"/><path d="M394.15,41l-13.9-7.34h.32L394.47,41h-.32" fill="#fff"/><path d="M394.47,43.72h-.2a2.78,2.78,0,0,1-1.41-.32L379,36.05a2.76,2.76,0,0,1,1-5.19l.3,0a5.72,5.72,0,0,1,.62,0,2.69,2.69,0,0,1,1,.3l13.9,7.34a2.77,2.77,0,0,1-1.29,5.21Zm0,0h0Z" fill="#1d1d1b"/><path d="M394.47,41l-13.9-7.35a1.6,1.6,0,0,1,.48.16L395,41.11a1.34,1.34,0,0,0-.48-.15" fill="#fff"/><path d="M395,43.87a2.78,2.78,0,0,1-1.06-.21,2.7,2.7,0,0,1-.72-.26l-13.9-7.34a2.77,2.77,0,0,1,1.63-5.19,4.25,4.25,0,0,1,1.44.45l13.9,7.34h0A2.77,2.77,0,0,1,395,43.87Zm-.82-.17Zm-.47-.15Z" fill="#1d1d1b"/></g></g></g><polygon points="366.15 84.43 352.25 77.09 380.38 37.47 394.29 44.81 366.15 84.43" fill="#fff"/><path d="M366.15,87.2a2.83,2.83,0,0,1-1.29-.32L351,79.53a2.76,2.76,0,0,1-1-4l28.14-39.62a2.77,2.77,0,0,1,3.55-.85l13.9,7.35a2.77,2.77,0,0,1,1,4L368.4,86A2.76,2.76,0,0,1,366.15,87.2Zm-9.82-11.08,9,4.74,24.91-35.08-9-4.74Z" fill="#1d1d1b"/><g style="isolation:isolate"><path d="M352.25,77.09l4.23,2.24,3.63,1.92,3.57,1.88,1.67.88c.24.13.53.42.8.42A1.46,1.46,0,0,1,365,85q-7-3.66-13.9-7.34A1.49,1.49,0,0,0,352.25,77.09Z" fill="#fff"/><path d="M365,87.81a2.81,2.81,0,0,1-1.3-.32l-13.9-7.35a3.41,3.41,0,0,1,3.71-5.5l13.1,6.93c.13.07.27.15.42.25A2.76,2.76,0,0,1,368.39,86a4.23,4.23,0,0,1-3.15,1.76Z" fill="#1d1d1b"/><g clip-path="url(#t)"><g style="isolation:isolate"><path d="M365,85.05l-13.9-7.35h.08L365.06,85H365" fill="#fff"/><path d="M365,87.81a2.77,2.77,0,0,1-1.29-.32l-13.9-7.34a2.76,2.76,0,0,1,1.12-5.2,2.71,2.71,0,0,1,1.55.3l13.9,7.35a2.76,2.76,0,0,1-1,5.19l-.22,0Z" fill="#1d1d1b"/><path d="M365.06,85l-13.9-7.34a1.33,1.33,0,0,0,.3-.06L365.36,85a1.33,1.33,0,0,1-.3.06" fill="#fff"/><path d="M365.06,87.81a2.69,2.69,0,0,1-1.29-.33l-13.9-7.34A2.76,2.76,0,0,1,350.8,75a2.71,2.71,0,0,1,1.95.24l13.9,7.34a2.76,2.76,0,0,1-.52,5.1,5,5,0,0,1-.79.15ZM350.7,75h0Z" fill="#1d1d1b"/><path d="M365.36,85l-13.9-7.34a1.09,1.09,0,0,0,.25-.1l13.9,7.35a1.06,1.06,0,0,1-.25.09" fill="#fff"/><path d="M365.36,87.75a2.8,2.8,0,0,1-1.29-.32l-13.9-7.35a2.76,2.76,0,0,1,.42-5.06,2.72,2.72,0,0,1,2.41.08l13.9,7.34a2.77,2.77,0,0,1-.06,4.93,4.71,4.71,0,0,1-.71.27A2.87,2.87,0,0,1,365.36,87.75Z" fill="#1d1d1b"/><path d="M365.61,84.89l-13.9-7.35a1.28,1.28,0,0,0,.25-.15l13.9,7.35-.25.15" fill="#fff"/><path d="M365.61,87.65a2.8,2.8,0,0,1-1.29-.32L350.42,80a2.89,2.89,0,0,1,2.83-5l13.9,7.34a2.77,2.77,0,0,1,.4,4.63,4.73,4.73,0,0,1-.71.45A2.8,2.8,0,0,1,365.61,87.65Z" fill="#1d1d1b"/><path d="M365.86,84.74,352,77.39a1.65,1.65,0,0,0,.29-.3l13.9,7.34a1.72,1.72,0,0,1-.29.31" fill="#fff"/><path d="M365.85,87.5a2.83,2.83,0,0,1-1.29-.32l-13.9-7.34a2.76,2.76,0,0,1-1.46-2.21,3.14,3.14,0,0,1,4.34-3L367.44,82a2.79,2.79,0,0,1,1.4,1.81,2.76,2.76,0,0,1-.45,2.24,4.13,4.13,0,0,1-.84.88A2.75,2.75,0,0,1,365.85,87.5Z" fill="#1d1d1b"/></g></g></g><g style="isolation:isolate"><path d="M351.08,77.7h.05Q358.08,81.38,365,85h0Z" fill="#fff"/><path d="M365,87.81a2.77,2.77,0,0,1-1.29-.32l-13.9-7.34a2.77,2.77,0,0,1,1.09-5.2h0a2.54,2.54,0,0,1,1.5.32l13.9,7.34a2.77,2.77,0,0,1-1.09,5.2H365Z" fill="#1d1d1b"/><g clip-path="url(#u)"><g style="isolation:isolate"><path d="M365,85.05l-13.9-7.35h.08L365.06,85H365" fill="#fff"/><path d="M365,87.81a2.77,2.77,0,0,1-1.29-.32l-13.9-7.34a2.76,2.76,0,0,1,1.12-5.2,2.71,2.71,0,0,1,1.55.3l13.9,7.35a2.76,2.76,0,0,1-1,5.19l-.22,0Z" fill="#1d1d1b"/></g></g></g><g style="isolation:isolate"><path d="M364.32,84.89l-13.9-7.35a1.27,1.27,0,0,0,.66.16L365,85.05A1.49,1.49,0,0,1,364.32,84.89Z" fill="#fff"/><path d="M365,87.81a4.13,4.13,0,0,1-1.94-.48L349.13,80h0a2.89,2.89,0,0,1,3.25-4.73l13.9,7.34A2.76,2.76,0,0,1,365,87.81Zm.65-5.37Z" fill="#1d1d1b"/><g clip-path="url(#v)"><g style="isolation:isolate"><path d="M364.32,84.89l-13.9-7.35a1.29,1.29,0,0,0,.47.15L364.79,85a1.29,1.29,0,0,1-.47-.15" fill="#fff"/><path d="M364.8,87.8l-.34,0a4,4,0,0,1-1.43-.45h0L349.12,80h0a2.83,2.83,0,0,1,3.06-4.74l13.9,7.34a2.76,2.76,0,0,1-1.28,5.21Zm.8-5.36h0Z" fill="#1d1d1b"/><path d="M364.79,85l-13.9-7.35h.19L365,85.05h-.19" fill="#fff"/><path d="M365,87.81a4.36,4.36,0,0,1-.51,0,2.7,2.7,0,0,1-.95-.3l-13.9-7.34a2.81,2.81,0,0,1,2.77-4.88l13.9,7.34A2.77,2.77,0,0,1,365,87.81Z" fill="#1d1d1b"/></g></g></g><g style="isolation:isolate"><path d="M364.3,84.88l-13.9-7.35a1.13,1.13,0,0,1-.38-.3l13.9,7.34A1.26,1.26,0,0,0,364.3,84.88Z" fill="#fff"/><path d="M364.3,87.64a2.71,2.71,0,0,1-1.29-.32h0L349.11,80a4.15,4.15,0,0,1-1.18-.94,2.77,2.77,0,0,1,3.38-4.26l13.9,7.35a2.37,2.37,0,0,1,.61.44,2.76,2.76,0,0,1-1.52,5.07Zm1.3-5.21h0Z" fill="#1d1d1b"/><g clip-path="url(#w)"><g style="isolation:isolate"><path d="M364.3,84.88l-13.9-7.35a1.13,1.13,0,0,1-.38-.3l13.9,7.34a1.26,1.26,0,0,0,.38.31" fill="#fff"/><path d="M364.3,87.64a2.71,2.71,0,0,1-1.29-.32h0L349.11,80a4.15,4.15,0,0,1-1.18-.94,2.77,2.77,0,0,1,3.38-4.26l13.9,7.35a2.37,2.37,0,0,1,.61.44,2.76,2.76,0,0,1-1.52,5.07Zm1.3-5.21h0Z" fill="#1d1d1b"/></g></g></g><polygon points="364.9 81.29 351 73.94 379.21 34.22 393.11 41.56 364.9 81.29" fill="#fff"/><path d="M364.9,84.74a3.43,3.43,0,0,1-1.61-.4L349.39,77a3.45,3.45,0,0,1-1.2-5.06L376.4,32.22a3.45,3.45,0,0,1,4.43-1.06l13.9,7.35a3.44,3.44,0,0,1,1.2,5.05L367.72,83.29A3.45,3.45,0,0,1,364.9,84.74Zm-8.8-12,7.74,4.09,24.17-34-7.73-4.08Z" fill="#1d1d1b"/><polygon points="331.52 123.45 317.62 116.11 441.7 113.94 455.6 121.29 331.52 123.45"/><path d="M331.52,126.22a2.77,2.77,0,0,1-1.29-.32l-13.9-7.35a2.76,2.76,0,0,1,1.24-5.2l124.08-2.17a2.63,2.63,0,0,1,1.34.32l13.9,7.34a2.76,2.76,0,0,1-1.24,5.21l-124.08,2.17Zm-3.11-7.53,3.77,2,112.63-2-3.77-2Z" fill="#1d1d1b"/><g style="isolation:isolate"><path d="M329.41,129a2.71,2.71,0,0,1-1.29-.32h0l-13.9-7.34a4.18,4.18,0,0,1-2.22-3.71,2.76,2.76,0,0,1,4.06-2.43L330,122.5a5.39,5.39,0,0,1,1.89,5A2.74,2.74,0,0,1,329.41,129Zm1.29-5.2Z" fill="#1d1d1b"/><g clip-path="url(#x)"><g style="isolation:isolate"><path d="M329.41,126.2l-13.9-7.34a2,2,0,0,1-.33-.24,1.48,1.48,0,0,1-.41-1l13.9,7.34a1.44,1.44,0,0,0,.41,1,1.27,1.27,0,0,0,.33.24"/><path d="M329.41,129a2.71,2.71,0,0,1-1.29-.32h0l-13.9-7.34a4,4,0,0,1-1-.73,4.23,4.23,0,0,1-1.23-3,2.76,2.76,0,0,1,4.06-2.43L330,122.5a5.39,5.39,0,0,1,1.89,5A2.74,2.74,0,0,1,329.41,129Zm1.29-5.2Z" fill="#1d1d1b"/></g></g></g><polygon points="363.92 84.57 350.02 77.23 317.82 40.01 331.72 47.35 363.92 84.57" fill="#fff"/><path d="M363.92,87.33a2.68,2.68,0,0,1-1.29-.32l-13.9-7.34a2.76,2.76,0,0,1-.8-.63l-32.2-37.22a2.76,2.76,0,0,1,3.38-4.25L333,44.91a2.86,2.86,0,0,1,.8.63L366,82.76a2.76,2.76,0,0,1-2.09,4.57ZM351.77,75l.43.23L330,49.55l-.44-.23Z" fill="#1d1d1b"/><polygon points="331.52 123.45 317.62 116.11 317.82 40.01 331.72 47.35 331.52 123.45" fill="#fff"/><path d="M331.52,126.22a2.8,2.8,0,0,1-1.29-.32l-13.9-7.35a2.74,2.74,0,0,1-1.47-2.45l.19-76.1a2.8,2.8,0,0,1,1.34-2.36,2.75,2.75,0,0,1,2.72-.07L333,44.91a2.76,2.76,0,0,1,1.47,2.45l-.2,76.1a2.78,2.78,0,0,1-2.76,2.76Zm-11.13-11.77,8.38,4.42L329,49l-8.38-4.43Z" fill="#1d1d1b"/><path d="M457.74,39.93a1.41,1.41,0,0,1,.92,1.34l-.21,81.41a1.52,1.52,0,0,1-.43,1,1.46,1.46,0,0,1-1,.44l-126.93,2.21a1.4,1.4,0,0,1-1-.4,1.44,1.44,0,0,1-.41-1l.21-81.41a1.48,1.48,0,0,1,.93-1.37,1.71,1.71,0,0,1,.5-.1,1.43,1.43,0,0,1,1.07.48L364.9,81.29l28.21-39.73a1.44,1.44,0,0,1,1.15-.61,1.36,1.36,0,0,1,1.14.55l28,37.12,32.74-38.26a1.41,1.41,0,0,1,1.08-.51A1.28,1.28,0,0,1,457.74,39.93Zm-2.14,81.36.2-76.14L424.4,81.83a1.44,1.44,0,0,1-1.08.51,1.43,1.43,0,0,1-1.13-.55l-27.91-37L366.15,84.43a1.44,1.44,0,0,1-1.1.61,1.4,1.4,0,0,1-1.13-.47l-32.2-37.22-.2,76.1,124.08-2.16" fill="#fff"/><path d="M330.06,129.13a4.14,4.14,0,0,1-2.93-1.22,4.23,4.23,0,0,1-1.23-3l.21-81.42a4.28,4.28,0,0,1,2.69-3.93,4.17,4.17,0,0,1,1.46-.29,4.13,4.13,0,0,1,3.21,1.43l31.22,36.09L390.86,40a4.18,4.18,0,0,1,6.76-.12l25.93,34.37,30.51-35.65a4.24,4.24,0,0,1,3.13-1.48,4.3,4.3,0,0,1,1.5.25,4.19,4.19,0,0,1,2.73,3.94l-.21,81.42a4.25,4.25,0,0,1-1.22,3,4.19,4.19,0,0,1-2.92,1.26l-126.93,2.22Zm125.54-7.84h0ZM334.46,54.75l-.17,65.89,118.55-2.07L453,52.65l-26.51,31a4.24,4.24,0,0,1-3.14,1.48h-.1A4.18,4.18,0,0,1,420,83.46l-25.64-34L368.4,86a4.19,4.19,0,0,1-3.19,1.77H365a4.19,4.19,0,0,1-3.19-1.43ZM456.79,42.53Z" fill="#1d1d1b"/><path d="M394.28,44.81l27.91,37a1.4,1.4,0,0,0,1.08.55,1.47,1.47,0,0,0,1.13-.51l31.4-36.68-.2,76.14-124.08,2.16.2-76.1,32.2,37.22a1.39,1.39,0,0,0,1.06.48,1.5,1.5,0,0,0,1.17-.62Z" fill="#fff"/><polygon points="328.67 124.94 314.77 117.6 314.98 36.19 328.88 43.53 328.67 124.94" fill="#fff"/><path d="M328.67,128.4a3.44,3.44,0,0,1-1.62-.4l-13.9-7.34a3.47,3.47,0,0,1-1.84-3.07l.21-81.41a3.46,3.46,0,0,1,5.07-3l13.9,7.35a3.43,3.43,0,0,1,1.84,3.06L332.12,125a3.48,3.48,0,0,1-1.67,3A3.56,3.56,0,0,1,328.67,128.4Zm-10.44-12.88,7,3.7.19-73.61-7-3.7Z" fill="#1d1d1b"/><g style="isolation:isolate"><path d="M317.08,34.88,331,42.22a1.41,1.41,0,0,0-.67-.16,1.71,1.71,0,0,0-.5.1,1.48,1.48,0,0,0-.93,1.37L315,36.19a1.48,1.48,0,0,1,.93-1.37,1.44,1.44,0,0,1,.5-.1A1.41,1.41,0,0,1,317.08,34.88Z" fill="#fff"/><path d="M328.88,46.29a2.68,2.68,0,0,1-1.29-.32l-13.9-7.34a2.77,2.77,0,0,1-1.48-2.45,4.26,4.26,0,0,1,2.69-3.93,4,4,0,0,1,1.46-.29,4.07,4.07,0,0,1,2,.48l13.9,7.34h0a2.77,2.77,0,0,1-1,5.2,2.73,2.73,0,0,1-.93.92A2.79,2.79,0,0,1,328.88,46.29Z" fill="#1d1d1b"/><g clip-path="url(#y)"><g style="isolation:isolate"><path d="M328.88,43.53,315,36.19a1.51,1.51,0,0,1,.57-1.17l13.9,7.35a1.47,1.47,0,0,0-.57,1.16" fill="#fff"/><path d="M328.88,46.29a2.68,2.68,0,0,1-1.29-.32l-13.9-7.34a2.77,2.77,0,0,1-1.48-2.45,4.27,4.27,0,0,1,1.65-3.34,2.74,2.74,0,0,1,3-.26l13.9,7.34a2.77,2.77,0,0,1,1.47,2.21,2.81,2.81,0,0,1-.63,2,2.76,2.76,0,0,1-1.28,1.76A2.79,2.79,0,0,1,328.88,46.29Z" fill="#1d1d1b"/><path d="M329.45,42.37,315.55,35a1.28,1.28,0,0,1,.25-.15l13.9,7.34-.25.16" fill="#fff"/><path d="M329.45,45.13a2.83,2.83,0,0,1-1.29-.32l-13.9-7.34a2.77,2.77,0,0,1-.4-4.63,4.05,4.05,0,0,1,.71-.45,2.77,2.77,0,0,1,2.52,0L331,39.77a2.91,2.91,0,0,1-1.54,5.36Z" fill="#1d1d1b"/><path d="M329.7,42.21l-13.9-7.34.11,0,.13,0,13.9,7.35-.13,0-.11.05" fill="#fff"/><path d="M329.7,45a2.77,2.77,0,0,1-1.29-.32l-13.9-7.35A2.76,2.76,0,0,1,313,34.84a2.8,2.8,0,0,1,1.54-2.45l.32-.14.38-.13a2.78,2.78,0,0,1,2.06.21l13.9,7.34A2.88,2.88,0,0,1,329.7,45Zm1.21-.28Z" fill="#1d1d1b"/><path d="M329.94,42.12,316,34.77a1.09,1.09,0,0,1,.25,0l13.9,7.34a1.11,1.11,0,0,0-.25,0" fill="#fff"/><path d="M329.94,44.88a2.77,2.77,0,0,1-1.29-.32l-13.9-7.34a2.76,2.76,0,0,1,.52-5.1A3.72,3.72,0,0,1,316,32a2.74,2.74,0,0,1,1.57.3l13.9,7.35a2.76,2.76,0,0,1-.89,5.17A2.36,2.36,0,0,1,329.94,44.88Z" fill="#1d1d1b"/><path d="M330.19,42.07l-13.9-7.34h.31l13.9,7.34h-.31" fill="#fff"/><path d="M330.5,44.84h-.19a2.78,2.78,0,0,1-1.41-.32L315,37.17a2.77,2.77,0,0,1,1-5.2h.33a2.92,2.92,0,0,1,.59,0,2.59,2.59,0,0,1,.94.3l13.9,7.34a2.76,2.76,0,0,1-1.29,5.21Zm0,0Z" fill="#1d1d1b"/><path d="M330.5,42.07l-13.9-7.34a1.34,1.34,0,0,1,.48.15L331,42.22a1.34,1.34,0,0,0-.48-.15" fill="#fff"/><path d="M331,45a2.82,2.82,0,0,1-1.06-.21,2.87,2.87,0,0,1-.71-.26l-13.9-7.35A2.76,2.76,0,0,1,316.94,32a4,4,0,0,1,1.43.45l13.91,7.34h0A2.77,2.77,0,0,1,331,45Zm-.81-.17Zm-.48-.15h0Z" fill="#1d1d1b"/></g></g></g><rect x="6.68" y="902.59" width="970.96" height="55.74" fill="none" stroke="#1d1d1b" stroke-miterlimit="10" stroke-width="10"/></svg>