<svg xmlns="http://www.w3.org/2000/svg" xmlns:xlink="http://www.w3.org/1999/xlink" viewBox="0 0 91.43 87.6"><defs><clipPath id="a"><polygon points="0 87.54 2.62 0 92.74 0 90.11 87.54 0 87.54" fill="none"/></clipPath></defs><g clip-path="url(#a)"><path d="M31.29,23.34a4.31,4.31,0,0,0-3,1.36,12.4,12.4,0,0,0-4.21,9C23.89,39.08,27.76,44.23,28.3,45S35.86,56.62,47,61.32a64.5,64.5,0,0,0,6.33,2.28,14.33,14.33,0,0,0,4.31.63,18,18,0,0,0,2.74-.2c2.16-.3,6.71-2.62,7.72-5.14a8.8,8.8,0,0,0,.8-5.15c-.26-.47-1-.73-2.11-1.28s-6.54-3.15-7.56-3.52A3.76,3.76,0,0,0,58,48.66a1.58,1.58,0,0,0-1.34.83c-.79,1.08-3,3.52-3.68,4.25a1.64,1.64,0,0,1-1.23.61,2.69,2.69,0,0,1-1.2-.35,29.56,29.56,0,0,1-8.86-5.38,31.78,31.78,0,0,1-6-7.5c-.62-1.08,0-1.62.56-2.2a34.56,34.56,0,0,0,2.91-3.7,1.92,1.92,0,0,0,0-1.91c-.26-.54-2.34-5.88-3.22-8-.75-1.86-1.56-1.86-2.21-1.86h-.24c-.65,0-1.4,0-2.15,0M11.07,77.25,15.24,64l-.85-1.36A34.25,34.25,0,0,1,9.28,43.4c.6-19.88,17.81-36,38.38-36A36.59,36.59,0,0,1,73.72,17.92a34.2,34.2,0,0,1,10.14,25.5C83.26,63.3,66,79.48,45.48,79.48h0a37.55,37.55,0,0,1-18.84-5l-1.33-.78L11.07,77.25M47.86,0C23.12,0,2.41,19.48,1.69,43.4A41.25,41.25,0,0,0,7,65.07L0,87.55l24-6A45,45,0,0,0,45.25,86.8h0C70,86.8,90.71,67.35,91.43,43.42A41.06,41.06,0,0,0,79.22,12.75,44,44,0,0,0,47.87,0" fill="#fff"/></g></svg>